<svg xmlns="http://www.w3.org/2000/svg" viewBox="0 0 960 700">
  <style>
    text { font-family: 'Helvetica Neue', Helvetica, Arial, 'PingFang SC', 'Microsoft YaHei', sans-serif; }
  </style>
  <rect width="960" height="700" fill="#ffffff"/>
  <text x="480" y="36" text-anchor="middle" font-size="18" font-weight="600" fill="#111827">作品画廊 — UI 原型</text>
  <rect x="40" y="55" width="880" height="620" rx="12" fill="#f9fafb" stroke="#d1d5db" stroke-width="2"/>
  <rect x="40" y="55" width="880" height="40" rx="12" fill="#f3f4f6" stroke="#d1d5db" stroke-width="1.5"/>
  <circle cx="64" cy="75" r="6" fill="#ef4444"/>
  <circle cx="84" cy="75" r="6" fill="#eab308"/>
  <circle cx="104" cy="75" r="6" fill="#22c55e"/>
  <rect x="40" y="95" width="880" height="50" rx="0" fill="#ffffff" stroke="#d1d5db" stroke-width="1"/>
  <text x="70" y="125" font-size="16" font-weight="600" fill="#2563eb">AI 生图</text>
  <text x="160" y="125" font-size="14" fill="#111827" font-weight="600">画廊</text>
  <rect x="720" y="107" width="80" height="26" rx="13" fill="#eff6ff" stroke="#bfdbfe" stroke-width="1"/>
  <text x="760" y="124" text-anchor="middle" font-size="12" fill="#2563eb">100 积分</text>
  <text x="830" y="125" font-size="13" fill="#6b7280">用户名</text>
  <rect x="60" y="165" width="270" height="200" rx="8" fill="#f3f4f6" stroke="#e5e7eb" stroke-width="1"/>
  <text x="195" y="260" text-anchor="middle" font-size="13" fill="#9ca3af">图片 1</text>
  <text x="195" y="280" text-anchor="middle" font-size="11" fill="#9ca3af">1024×1024 · Agnes 2.1</text>
  <rect x="350" y="165" width="270" height="200" rx="8" fill="#f3f4f6" stroke="#e5e7eb" stroke-width="1"/>
  <text x="485" y="260" text-anchor="middle" font-size="13" fill="#9ca3af">图片 2</text>
  <text x="485" y="280" text-anchor="middle" font-size="11" fill="#9ca3af">768×1024 · Agnes 2.0</text>
  <rect x="640" y="165" width="270" height="200" rx="8" fill="#f3f4f6" stroke="#e5e7eb" stroke-width="1"/>
  <text x="775" y="260" text-anchor="middle" font-size="13" fill="#9ca3af">图片 3</text>
  <text x="775" y="280" text-anchor="middle" font-size="11" fill="#9ca3af">1024×768 · Sensenova</text>
  <rect x="60" y="385" width="270" height="200" rx="8" fill="#f3f4f6" stroke="#e5e7eb" stroke-width="1"/>
  <text x="195" y="480" text-anchor="middle" font-size="13" fill="#9ca3af">图片 4</text>
  <text x="195" y="500" text-anchor="middle" font-size="11" fill="#9ca3af">1024×1024 · Agnes 2.1</text>
  <rect x="350" y="385" width="270" height="200" rx="8" fill="#f3f4f6" stroke="#e5e7eb" stroke-width="1"/>
  <text x="485" y="480" text-anchor="middle" font-size="13" fill="#9ca3af">图片 5</text>
  <text x="485" y="500" text-anchor="middle" font-size="11" fill="#9ca3af">1280×720 · Agnes 2.0</text>
  <rect x="640" y="385" width="270" height="200" rx="8" fill="#f9fafb" stroke="#d1d5db" stroke-width="1.5" stroke-dasharray="8,4"/>
  <text x="775" y="480" text-anchor="middle" font-size="13" fill="#d1d5db">更多作品...</text>
  <rect x="320" y="200" width="320" height="300" rx="12" fill="#ffffff" stroke="#d1d5db" stroke-width="2" opacity="0.95"/>
  <text x="480" y="230" text-anchor="middle" font-size="14" font-weight="600" fill="#111827">图片详情 (点击弹窗)</text>
  <rect x="340" y="245" width="280" height="180" rx="6" fill="#f3f4f6"/>
  <text x="480" y="340" text-anchor="middle" font-size="14" fill="#9ca3af">大图预览</text>
  <text x="340" y="450" font-size="12" fill="#6b7280">模型: Agnes 2.1 Flash</text>
  <text x="340" y="470" font-size="12" fill="#6b7280">尺寸: 1024×1024</text>
  <text x="340" y="490" font-size="12" fill="#6b7280">创建: 2025-07-02</text>
  <rect x="340" y="505" width="80" height="28" rx="6" fill="#2563eb"/>
  <text x="380" y="524" text-anchor="middle" font-size="11" fill="#ffffff">下载</text>
  <rect x="430" y="505" width="80" height="28" rx="6" fill="#ef4444"/>
  <text x="470" y="524" text-anchor="middle" font-size="11" fill="#ffffff">删除</text>
</svg>