<svg xmlns="http://www.w3.org/2000/svg" viewBox="0 0 960 700">
  <style>
    text { font-family: 'Helvetica Neue', Helvetica, Arial, 'PingFang SC', 'Microsoft YaHei', sans-serif; }
  </style>
  <defs>
    <marker id="arrow-blue" markerWidth="10" markerHeight="7" refX="9" refY="3.5" orient="auto"><polygon points="0 0, 10 3.5, 0 7" fill="#2563eb"/></marker>
  </defs>
  <rect width="960" height="700" fill="#ffffff"/>
  <text x="480" y="36" text-anchor="middle" font-size="18" font-weight="600" fill="#111827">生图页面 — UI 原型</text>
  <rect x="40" y="55" width="880" height="620" rx="12" fill="#f9fafb" stroke="#d1d5db" stroke-width="2"/>
  <rect x="40" y="55" width="880" height="40" rx="12" fill="#f3f4f6" stroke="#d1d5db" stroke-width="1.5"/>
  <circle cx="64" cy="75" r="6" fill="#ef4444"/>
  <circle cx="84" cy="75" r="6" fill="#eab308"/>
  <circle cx="104" cy="75" r="6" fill="#22c55e"/>
  <rect x="40" y="95" width="880" height="50" rx="0" fill="#ffffff" stroke="#d1d5db" stroke-width="1"/>
  <text x="70" y="125" font-size="16" font-weight="600" fill="#2563eb">AI 生图</text>
  <text x="160" y="125" font-size="14" fill="#6b7280">画廊</text>
  <rect x="720" y="107" width="80" height="26" rx="13" fill="#eff6ff" stroke="#bfdbfe" stroke-width="1"/>
  <text x="760" y="124" text-anchor="middle" font-size="12" fill="#2563eb">100 积分</text>
  <text x="830" y="125" font-size="13" fill="#6b7280">用户名</text>
  <rect x="40" y="145" width="240" height="530" rx="0" fill="#ffffff" stroke="#d1d5db" stroke-width="1"/>
  <text x="60" y="175" font-size="13" font-weight="600" fill="#111827">模型选择</text>
  <rect x="60" y="185" width="200" height="36" rx="6" fill="#eff6ff" stroke="#bfdbfe" stroke-width="1.5"/>
  <text x="80" y="208" font-size="12" fill="#111827">Agnes Image 2.1</text>
  <rect x="60" y="228" width="200" height="32" rx="6" fill="#ffffff" stroke="#d1d5db" stroke-width="1"/>
  <text x="80" y="249" font-size="12" fill="#6b7280">Agnes Image 2.0</text>
  <rect x="60" y="266" width="200" height="32" rx="6" fill="#ffffff" stroke="#d1d5db" stroke-width="1"/>
  <text x="80" y="287" font-size="12" fill="#6b7280">Sensenova u1-fast</text>
  <text x="60" y="325" font-size="13" font-weight="600" fill="#111827">参考图 (图生图)</text>
  <rect x="60" y="335" width="200" height="80" rx="8" fill="#f9fafb" stroke="#d1d5db" stroke-width="1" stroke-dasharray="6,3"/>
  <text x="160" y="375" text-anchor="middle" font-size="12" fill="#9ca3af">点击或拖拽上传</text>
  <text x="160" y="395" text-anchor="middle" font-size="11" fill="#9ca3af">支持 JPG/PNG</text>
  <text x="60" y="445" font-size="13" font-weight="600" fill="#111827">尺寸</text>
  <rect x="60" y="455" width="56" height="28" rx="6" fill="#eff6ff" stroke="#bfdbfe" stroke-width="1.5"/>
  <text x="88" y="474" text-anchor="middle" font-size="11" fill="#2563eb">1:1</text>
  <rect x="124" y="455" width="56" height="28" rx="6" fill="#ffffff" stroke="#d1d5db" stroke-width="1"/>
  <text x="152" y="474" text-anchor="middle" font-size="11" fill="#6b7280">3:4</text>
  <rect x="188" y="455" width="56" height="28" rx="6" fill="#ffffff" stroke="#d1d5db" stroke-width="1"/>
  <text x="216" y="474" text-anchor="middle" font-size="11" fill="#6b7280">4:3</text>
  <rect x="60" y="490" width="56" height="28" rx="6" fill="#ffffff" stroke="#d1d5db" stroke-width="1"/>
  <text x="88" y="509" text-anchor="middle" font-size="11" fill="#6b7280">9:16</text>
  <rect x="124" y="490" width="56" height="28" rx="6" fill="#ffffff" stroke="#d1d5db" stroke-width="1"/>
  <text x="152" y="509" text-anchor="middle" font-size="11" fill="#6b7280">16:9</text>
  <text x="60" y="550" font-size="13" font-weight="600" fill="#111827">高级选项</text>
  <rect x="60" y="560" width="16" height="16" rx="3" fill="#ffffff" stroke="#d1d5db" stroke-width="1.5"/>
  <text x="84" y="573" font-size="12" fill="#6b7280">思考模式</text>
  <rect x="60" y="585" width="16" height="16" rx="3" fill="#ffffff" stroke="#d1d5db" stroke-width="1.5"/>
  <text x="84" y="598" font-size="12" fill="#6b7280">水印</text>
  <rect x="280" y="145" width="640" height="530" rx="0" fill="#ffffff" stroke="#d1d5db" stroke-width="1"/>
  <rect x="300" y="165" width="600" height="340" rx="8" fill="#f3f4f6" stroke="#e5e7eb" stroke-width="1"/>
  <text x="600" y="320" text-anchor="middle" font-size="16" fill="#9ca3af">生成结果预览区</text>
  <text x="600" y="345" text-anchor="middle" font-size="13" fill="#9ca3af">生成的图片将显示在这里</text>
  <rect x="300" y="515" width="120" height="36" rx="8" fill="#f3f4f6" stroke="#d1d5db" stroke-width="1"/>
  <text x="360" y="538" text-anchor="middle" font-size="12" fill="#6b7280">下载</text>
  <rect x="430" y="515" width="120" height="36" rx="8" fill="#f3f4f6" stroke="#d1d5db" stroke-width="1"/>
  <text x="490" y="538" text-anchor="middle" font-size="12" fill="#6b7280">重新生成</text>
  <text x="300" y="575" font-size="13" font-weight="600" fill="#111827">Prompt</text>
  <rect x="300" y="585" width="600" height="60" rx="8" fill="#ffffff" stroke="#d1d5db" stroke-width="1.5"/>
  <text x="316" y="615" font-size="12" fill="#9ca3af">输入图片描述，例如：赛博朋克风格的未来城市...</text>
  <rect x="720" y="655" width="180" height="44" rx="22" fill="#2563eb" stroke="none"/>
  <text x="810" y="682" text-anchor="middle" font-size="14" font-weight="600" fill="#ffffff">生成图片 -2积分</text>
</svg>