<svg xmlns="http://www.w3.org/2000/svg" viewBox="0 0 960 900">
  <style>
    text { font-family: 'Helvetica Neue', Helvetica, Arial, 'PingFang SC', 'Microsoft YaHei', sans-serif; }
  </style>
  <defs>
    <linearGradient id="hero-grad" x1="0%" y1="0%" x2="100%" y2="100%">
      <stop offset="0%" style="stop-color:#1e1b4b;stop-opacity:1"/>
      <stop offset="50%" style="stop-color:#312e81;stop-opacity:1"/>
      <stop offset="100%" style="stop-color:#4338ca;stop-opacity:1"/>
    </linearGradient>
    <linearGradient id="card1" x1="0%" y1="0%" x2="100%" y2="100%">
      <stop offset="0%" style="stop-color:#667eea;stop-opacity:0.2"/>
      <stop offset="100%" style="stop-color:#764ba2;stop-opacity:0.2"/>
    </linearGradient>
    <linearGradient id="card2" x1="0%" y1="0%" x2="100%" y2="100%">
      <stop offset="0%" style="stop-color:#f093fb;stop-opacity:0.15"/>
      <stop offset="100%" style="stop-color:#f5576c;stop-opacity:0.15"/>
    </linearGradient>
    <linearGradient id="card3" x1="0%" y1="0%" x2="100%" y2="100%">
      <stop offset="0%" style="stop-color:#4facfe;stop-opacity:0.2"/>
      <stop offset="100%" style="stop-color:#00f2fe;stop-opacity:0.2"/>
    </linearGradient>
    <linearGradient id="card4" x1="0%" y1="0%" x2="100%" y2="100%">
      <stop offset="0%" style="stop-color:#43e97b;stop-opacity:0.2"/>
      <stop offset="100%" style="stop-color:#38f9d7;stop-opacity:0.2"/>
    </linearGradient>
    <linearGradient id="card5" x1="0%" y1="0%" x2="100%" y2="100%">
      <stop offset="0%" style="stop-color:#fa709a;stop-opacity:0.2"/>
      <stop offset="100%" style="stop-color:#fee140;stop-opacity:0.2"/>
    </linearGradient>
    <linearGradient id="card6" x1="0%" y1="0%" x2="100%" y2="100%">
      <stop offset="0%" style="stop-color:#a18cd1;stop-opacity:0.2"/>
      <stop offset="100%" style="stop-color:#fbc2eb;stop-opacity:0.2"/>
    </linearGradient>
    <filter id="glow"><feDropShadow dx="0" dy="0" stdDeviation="8" flood-color="#818cf8" flood-opacity="0.3"/></filter>
    <filter id="shadow-sm"><feDropShadow dx="0" dy="2" stdDeviation="4" flood-opacity="0.08"/></filter>
  </defs>
  <rect width="960" height="900" fill="#fafbff"/>
  <rect x="0" y="0" width="960" height="56" fill="#ffffff" opacity="0.95"/>
  <line x1="0" y1="56" x2="960" y2="56" stroke="#e5e7eb" stroke-width="0.5"/>
  <text x="40" y="36" font-size="17" font-weight="700" fill="#4338ca">✨ AI 生图</text>
  <text x="540" y="36" font-size="14" fill="#6b7280">画廊</text>
  <text x="610" y="36" font-size="14" fill="#6b7280">模型</text>
  <text x="680" y="36" font-size="14" fill="#6b7280">关于</text>
  <rect x="780" y="14" width="70" height="30" rx="15" fill="#ffffff" stroke="#d1d5db" stroke-width="1"/>
  <text x="815" y="34" text-anchor="middle" font-size="12" fill="#6b7280">登录</text>
  <rect x="860" y="14" width="70" height="30" rx="15" fill="#4338ca" stroke="none"/>
  <text x="895" y="34" text-anchor="middle" font-size="12" fill="#ffffff">注册</text>
  <rect x="0" y="56" width="960" height="200" fill="url(#hero-grad)"/>
  <circle cx="800" cy="120" r="100" fill="#ffffff" opacity="0.05"/>
  <circle cx="850" cy="180" r="60" fill="#ffffff" opacity="0.05"/>
  <circle cx="120" cy="220" r="80" fill="#ffffff" opacity="0.03"/>
  <text x="480" y="115" text-anchor="middle" font-size="30" font-weight="700" fill="#ffffff">用 AI 创造无限可能</text>
  <text x="480" y="148" text-anchor="middle" font-size="15" fill="#c7d2fe">输入文字，让 AI 为你生成精美图片</text>
  <rect x="380" y="168" width="200" height="44" rx="22" fill="#ffffff" filter="url(#shadow-sm)"/>
  <text x="480" y="196" text-anchor="middle" font-size="15" font-weight="600" fill="#4338ca">开始创作 →</text>
  <text x="280" y="236" text-anchor="middle" font-size="13" fill="#c7d2fe">1,256 张作品</text>
  <text x="480" y="236" text-anchor="middle" font-size="13" fill="#c7d2fe">128 位创作者</text>
  <text x="680" y="236" text-anchor="middle" font-size="13" fill="#c7d2fe">3 个 AI 模型</text>
  <rect x="40" y="275" width="880" height="40" rx="0" fill="#ffffff"/>
  <rect x="60" y="282" width="50" height="26" rx="13" fill="#4338ca"/>
  <text x="85" y="300" text-anchor="middle" font-size="12" fill="#ffffff">全部</text>
  <rect x="126" y="282" width="60" height="26" rx="13" fill="#f3f4f6" stroke="#e5e7eb" stroke-width="1"/>
  <text x="156" y="300" text-anchor="middle" font-size="12" fill="#6b7280">风景</text>
  <rect x="202" y="282" width="60" height="26" rx="13" fill="#f3f4f6" stroke="#e5e7eb" stroke-width="1"/>
  <text x="232" y="300" text-anchor="middle" font-size="12" fill="#6b7280">人物</text>
  <rect x="278" y="282" width="60" height="26" rx="13" fill="#f3f4f6" stroke="#e5e7eb" stroke-width="1"/>
  <text x="308" y="300" text-anchor="middle" font-size="12" fill="#6b7280">动物</text>
  <rect x="354" y="282" width="60" height="26" rx="13" fill="#f3f4f6" stroke="#e5e7eb" stroke-width="1"/>
  <text x="384" y="300" text-anchor="middle" font-size="12" fill="#6b7280">建筑</text>
  <rect x="430" y="282" width="60" height="26" rx="13" fill="#f3f4f6" stroke="#e5e7eb" stroke-width="1"/>
  <text x="460" y="300" text-anchor="middle" font-size="12" fill="#6b7280">动漫</text>
  <rect x="506" y="282" width="60" height="26" rx="13" fill="#f3f4f6" stroke="#e5e7eb" stroke-width="1"/>
  <text x="536" y="300" text-anchor="middle" font-size="12" fill="#6b7280">科幻</text>
  <rect x="582" y="282" width="60" height="26" rx="13" fill="#f3f4f6" stroke="#e5e7eb" stroke-width="1"/>
  <text x="612" y="300" text-anchor="middle" font-size="12" fill="#6b7280">油画</text>
  <rect x="658" y="282" width="60" height="26" rx="13" fill="#f3f4f6" stroke="#e5e7eb" stroke-width="1"/>
  <text x="688" y="300" text-anchor="middle" font-size="12" fill="#6b7280">产品</text>
  <rect x="40" y="330" width="280" height="200" rx="12" fill="url(#card1)" filter="url(#shadow-sm)"/>
  <text x="180" y="420" text-anchor="middle" font-size="14" fill="#6366f1">🏔️ 风景</text>
  <text x="180" y="445" text-anchor="middle" font-size="11" fill="#94a3b8">日出时分的浮空城市</text>
  <rect x="50" y="470" width="50" height="20" rx="10" fill="#ffffff" opacity="0.8"/>
  <text x="75" y="484" text-anchor="middle" font-size="10" fill="#6366f1">Agnes 2.1</text>
  <rect x="230" y="470" width="80" height="20" rx="10" fill="#ffffff" opacity="0.8"/>
  <text x="270" y="484" text-anchor="middle" font-size="10" fill="#6b7280">1024×1024</text>
  <rect x="340" y="330" width="280" height="140" rx="12" fill="url(#card2)" filter="url(#shadow-sm)"/>
  <text x="480" y="395" text-anchor="middle" font-size="14" fill="#ec4899">👤 人物</text>
  <text x="480" y="420" text-anchor="middle" font-size="11" fill="#94a3b8">赛博朋克少女</text>
  <rect x="640" y="330" width="280" height="170" rx="12" fill="url(#card3)" filter="url(#shadow-sm)"/>
  <text x="780" y="405" text-anchor="middle" font-size="14" fill="#0ea5e9">🌌 科幻</text>
  <text x="780" y="430" text-anchor="middle" font-size="11" fill="#94a3b8">星际飞船穿越虫洞</text>
  <rect x="40" y="545" width="280" height="170" rx="12" fill="url(#card4)" filter="url(#shadow-sm)"/>
  <text x="180" y="620" text-anchor="middle" font-size="14" fill="#16a34a">🐾 动物</text>
  <text x="180" y="645" text-anchor="middle" font-size="11" fill="#94a3b8">水彩风格的狐狸</text>
  <rect x="340" y="485" width="280" height="230" rx="12" fill="url(#card5)" filter="url(#shadow-sm)"/>
  <text x="480" y="580" text-anchor="middle" font-size="14" fill="#e11d48">🎨 油画</text>
  <text x="480" y="605" text-anchor="middle" font-size="11" fill="#94a3b8">莫奈风格的花园</text>
  <rect x="350" y="640" width="50" height="20" rx="10" fill="#ffffff" opacity="0.8"/>
  <text x="375" y="654" text-anchor="middle" font-size="10" fill="#e11d48">Agnes 2.0</text>
  <rect x="640" y="515" width="280" height="140" rx="12" fill="url(#card6)" filter="url(#shadow-sm)"/>
  <text x="780" y="580" text-anchor="middle" font-size="14" fill="#9333ea">🏗️ 建筑</text>
  <text x="780" y="605" text-anchor="middle" font-size="11" fill="#94a3b8">未来主义摩天大楼</text>
  <rect x="40" y="730" width="280" height="140" rx="12" fill="url(#card1)" filter="url(#shadow-sm)"/>
  <text x="180" y="795" text-anchor="middle" font-size="14" fill="#6366f1">🌸 动漫</text>
  <text x="180" y="820" text-anchor="middle" font-size="11" fill="#94a3b8">新海诚风格的天空</text>
  <rect x="340" y="730" width="280" height="140" rx="12" fill="url(#card3)" filter="url(#shadow-sm)"/>
  <text x="480" y="795" text-anchor="middle" font-size="14" fill="#0ea5e9">📦 产品</text>
  <text x="480" y="820" text-anchor="middle" font-size="11" fill="#94a3b8">极简风格耳机广告</text>
  <rect x="640" y="670" width="280" height="200" rx="12" fill="url(#card2)" filter="url(#shadow-sm)"/>
  <text x="780" y="755" text-anchor="middle" font-size="14" fill="#ec4899">🌃 风景</text>
  <text x="780" y="780" text-anchor="middle" font-size="11" fill="#94a3b8">雨夜霓虹街道</text>
  <rect x="0" y="885" width="960" height="15" fill="#1e1b4b"/>
  <text x="480" y="896" text-anchor="middle" font-size="10" fill="#818cf8">© 2025 AI 生图 · 用 AI 创造无限可能</text>
</svg>